<?xml version="1.0" encoding="UTF-8"?>
<svg version="1.1" xmlns="http://www.w3.org/2000/svg" width="50" height="50">
<path d="M0 0 C7.74399844 2.58133281 12.32714454 7.8846896 16 15 C18.3755209 22.1265627 18.10583796 30.65256531 15 37.5 C11.35453387 43.79671422 5.8707429 47.75669741 -1 50 C-9.86506278 51.02830399 -17.7532827 50.55492852 -25 45 C-27.35965134 42.51745015 -29.26465087 39.94892099 -31 37 C-31.37125 36.41605469 -31.7425 35.83210938 -32.125 35.23046875 C-34.57942505 28.97387632 -34.08905734 20.24646752 -31.97265625 13.9375 C-25.10375561 1.4555088 -13.324438 -1.74993849 0 0 Z M-14.04296875 17.75 C-15.10451172 18.86375 -15.10451172 18.86375 -16.1875 20 C-16.90292969 20.7425 -17.61835938 21.485 -18.35546875 22.25 C-18.89816406 22.8275 -19.44085938 23.405 -20 24 C-18.69235781 26.87806415 -17.28858403 29.00692296 -15.0625 31.25 C-14.30646484 32.03117187 -14.30646484 32.03117187 -13.53515625 32.828125 C-11.9244495 34.30338711 -11.9244495 34.30338711 -9 34 C-9.61277612 31.03824877 -10.25372522 29.61941217 -12 27 C-7.05 27 -2.1 27 3 27 C3 25.68 3 24.36 3 23 C-1.95 23 -6.9 23 -12 23 C-11.01 21.68 -10.02 20.36 -9 19 C-9 18.01 -9 17.02 -9 16 C-12.06860631 15.67472392 -12.06860631 15.67472392 -14.04296875 17.75 Z " fill="#A37DEE" transform="translate(33,0)"/>
</svg>
