<?xml version="1.0" encoding="UTF-8"?>
<svg version="1.1" xmlns="http://www.w3.org/2000/svg" width="21" height="21">
<path d="M0 0 C2.87029869 1.79393668 4.49131638 2.98263276 6 6 C6.55512815 10.63213493 6.6364242 13.98172127 4.125 18 C0.59185943 21.32530877 -2.04661263 21.33074386 -6.73828125 21.29296875 C-10.0542278 20.86344199 -11.74987627 19.39075646 -14 17 C-15.72869779 13.54260443 -15.48966895 9.78024432 -15 6 C-11.10231905 -0.23628951 -6.98983895 -0.90541955 0 0 Z M-8 9 C-8 9.99 -8 10.98 -8 12 C-5.36 11.67 -2.72 11.34 0 11 C0 10.67 0 10.34 0 10 C-2.64 9.67 -5.28 9.34 -8 9 Z " fill="#BF87EA" transform="translate(15,0)"/>
<path d="M0 0 C6.625 -0.25 6.625 -0.25 10 2 C12.74518321 2.24187651 12.74518321 2.24187651 15.6875 2.125 C16.68136719 2.10695313 17.67523437 2.08890625 18.69921875 2.0703125 C19.45847656 2.04710937 20.21773437 2.02390625 21 2 C18.64722222 8.22314815 18.64722222 8.22314815 15 10 C10.44986116 10.69871046 7.0819076 10.58603329 3 8.375 C0.62526793 5.55500567 0.24789282 3.63576129 0 0 Z " fill="#8572F3" transform="translate(0,11)"/>
<path d="M0 0 C6.27 0 12.54 0 19 0 C14 5 14 5 11.71875 5.6640625 C10.62046875 5.64472656 10.62046875 5.64472656 9.5 5.625 C8.7678125 5.63789063 8.035625 5.65078125 7.28125 5.6640625 C5 5 5 5 0 0 Z " fill="#756BF5" transform="translate(1,16)"/>
<path d="M0 0 C3.57374266 0.14916491 6.04939502 0.25344824 9.24609375 1.96875 C10.68359375 3.59375 10.68359375 3.59375 10.68359375 5.59375 C4.74359375 5.59375 -1.19640625 5.59375 -7.31640625 5.59375 C-2.31640625 0.59375 -2.31640625 0.59375 0 0 Z " fill="#D18FE8" transform="translate(8.31640625,-0.59375)"/>
<path d="M0 0 C2.02408755 0.09002398 4.04544287 0.24641038 6.0625 0.4375 C7.71958984 0.59025391 7.71958984 0.59025391 9.41015625 0.74609375 C10.26480469 0.82988281 11.11945312 0.91367188 12 1 C12 2.32 12 3.64 12 5 C8.04 5 4.08 5 0 5 C-0.33 3.68 -0.66 2.36 -1 1 C-0.67 0.67 -0.34 0.34 0 0 Z " fill="#9F7CEC" transform="translate(9,8)"/>
<path d="M0 0 C4.29 0 8.58 0 13 0 C13 0.66 13 1.32 13 2 C10.63386544 3.18306728 9.13219264 3.13354608 6.5 3.125 C5.7059375 3.12757812 4.911875 3.13015625 4.09375 3.1328125 C2 3 2 3 0 2 C0 1.34 0 0.68 0 0 Z " fill="#6465F7" transform="translate(4,18)"/>
<path d="M0 0 C0.7940625 -0.01417969 1.588125 -0.02835937 2.40625 -0.04296875 C4.5 0.1875 4.5 0.1875 6.5 2.1875 C5.5 3.1875 5.5 3.1875 2.99609375 3.28515625 C1.48208984 3.26775391 1.48208984 3.26775391 -0.0625 3.25 C-1.07441406 3.24097656 -2.08632812 3.23195312 -3.12890625 3.22265625 C-3.91136719 3.21105469 -4.69382812 3.19945312 -5.5 3.1875 C-5.83 2.5275 -6.16 1.8675 -6.5 1.1875 C-4.14653604 0.01076802 -2.6193967 0.02126134 0 0 Z " fill="#E195E6" transform="translate(10.5,-0.1875)"/>
<path d="M0 0 C2.97 0 5.94 0 9 0 C7.875 2 7.875 2 6 4 C2.8125 4.25 2.8125 4.25 0 4 C0 2.68 0 1.36 0 0 Z " fill="#AF82ED" transform="translate(0,7)"/>
<path d="M0 0 C3.375 -0.1875 3.375 -0.1875 7 0 C7.66 0.99 8.32 1.98 9 3 C6.03 3 3.06 3 0 3 C0 2.01 0 1.02 0 0 Z " fill="#9377F0" transform="translate(0,11)"/>
</svg>
